<svg width="40" height="40" viewBox="0 0 40 40" fill="none" xmlns="http://www.w3.org/2000/svg">
<path d="M17.9167 20L22.7125 14.7792C22.9087 14.5797 23.0186 14.3111 23.0186 14.0312C23.0186 13.7514 22.9087 13.4828 22.7125 13.2833C22.6157 13.1857 22.5005 13.1082 22.3735 13.0553C22.2466 13.0024 22.1104 12.9752 21.9729 12.9752C21.8354 12.9752 21.6993 13.0024 21.5723 13.0553C21.4454 13.1082 21.3302 13.1857 21.2333 13.2833L15.3854 19.25C15.1889 19.4489 15.0786 19.7172 15.0786 19.9969C15.0786 20.2765 15.1889 20.5449 15.3854 20.7438L21.2333 26.7104C21.3299 26.8086 21.445 26.8865 21.572 26.9397C21.699 26.9929 21.8352 27.0203 21.9729 27.0203C22.1106 27.0203 22.2469 26.9929 22.3739 26.9397C22.5008 26.8865 22.6159 26.8086 22.7125 26.7104C22.9091 26.5115 23.0193 26.2432 23.0193 25.9635C23.0193 25.6839 22.9091 25.4156 22.7125 25.2167L17.9167 20ZM20 0C17.3736 0 14.7728 0.517315 12.3463 1.52241C9.91982 2.5275 7.71503 4.00069 5.85786 5.85786C4.00069 7.71504 2.5275 9.91982 1.52241 12.3463C0.517315 14.7728 0 17.3736 0 20C0 31.0479 8.95417 40 20 40C31.0458 40 40 31.0479 40 20C40 14.6957 37.8929 9.60859 34.1421 5.85786C30.3914 2.10714 25.3043 0 20 0ZM20 37.4042C15.3839 37.4042 10.9568 35.5704 7.69266 32.3063C4.42855 29.0422 2.59479 24.6151 2.59479 19.999C2.59479 15.3828 4.42855 10.9557 7.69266 7.69162C10.9568 4.42751 15.3839 2.59375 20 2.59375C24.6161 2.59375 29.0432 4.42751 32.3073 7.69162C35.5715 10.9557 37.4052 15.3828 37.4052 19.999C37.4052 24.6151 35.5715 29.0422 32.3073 32.3063C29.0432 35.5704 24.6161 37.4042 20 37.4042Z" fill="#F48F38"/>
</svg>
