<svg width="40" height="40" viewBox="0 0 40 40" fill="none" xmlns="http://www.w3.org/2000/svg">
<path d="M22.0833 20L17.2875 14.7792C17.0913 14.5797 16.9814 14.3111 16.9814 14.0312C16.9814 13.7514 17.0913 13.4828 17.2875 13.2833C17.3843 13.1857 17.4995 13.1082 17.6265 13.0553C17.7534 13.0024 17.8896 12.9752 18.0271 12.9752C18.1646 12.9752 18.3007 13.0024 18.4277 13.0553C18.5546 13.1082 18.6698 13.1857 18.7667 13.2833L24.6146 19.25C24.8111 19.4489 24.9214 19.7172 24.9214 19.9969C24.9214 20.2765 24.8111 20.5449 24.6146 20.7438L18.7667 26.7104C18.6701 26.8086 18.555 26.8865 18.428 26.9397C18.301 26.9929 18.1648 27.0203 18.0271 27.0203C17.8894 27.0203 17.7531 26.9929 17.6261 26.9397C17.4992 26.8865 17.3841 26.8086 17.2875 26.7104C17.0909 26.5115 16.9807 26.2432 16.9807 25.9635C16.9807 25.6839 17.0909 25.4156 17.2875 25.2167L22.0833 20ZM20 0C22.6264 0 25.2272 0.517315 27.6537 1.52241C30.0802 2.5275 32.285 4.00069 34.1421 5.85786C35.9993 7.71504 37.4725 9.91982 38.4776 12.3463C39.4827 14.7728 40 17.3736 40 20C40 31.0479 31.0458 40 20 40C8.95417 40 0 31.0479 0 20C0 14.6957 2.10714 9.60859 5.85786 5.85786C9.60859 2.10714 14.6957 0 20 0ZM20 37.4042C24.6161 37.4042 29.0432 35.5704 32.3073 32.3063C35.5714 29.0422 37.4052 24.6151 37.4052 19.999C37.4052 15.3828 35.5714 10.9557 32.3073 7.69162C29.0432 4.42751 24.6161 2.59375 20 2.59375C15.3839 2.59375 10.9568 4.42751 7.69266 7.69162C4.42855 10.9557 2.59479 15.3828 2.59479 19.999C2.59479 24.6151 4.42855 29.0422 7.69266 32.3063C10.9568 35.5704 15.3839 37.4042 20 37.4042Z" fill="#F48F38"/>
</svg>
